<mxfile host="Electron" agent="Mozilla/5.0 (Windows NT 10.0; Win64; x64) AppleWebKit/537.36 (KHTML, like Gecko) draw.io/26.2.2 Chrome/134.0.6998.178 Electron/35.1.2 Safari/537.36" version="26.2.2">
  <diagram name="Page-1" id="K_7uDyhjaJsHDs-t8bkp">
    <mxGraphModel dx="995" dy="749" grid="1" gridSize="10" guides="1" tooltips="1" connect="1" arrows="1" fold="1" page="1" pageScale="1" pageWidth="850" pageHeight="1100" math="0" shadow="0">
      <root>
        <mxCell id="0" />
        <mxCell id="1" parent="0" />
        <mxCell id="TFRjILqGKOdQbyt4Zj_U-1" value="crm_cust_info" style="swimlane;fontStyle=0;childLayout=stackLayout;horizontal=1;startSize=30;horizontalStack=0;resizeParent=1;resizeParentMax=0;resizeLast=0;collapsible=1;marginBottom=0;whiteSpace=wrap;html=1;rounded=1;fillColor=#dae8fc;strokeColor=#6c8ebf;fontSize=18;" parent="1" vertex="1">
          <mxGeometry x="290" y="260" width="170" height="130" as="geometry" />
        </mxCell>
        <mxCell id="TFRjILqGKOdQbyt4Zj_U-2" value="cst_id" style="text;align=left;verticalAlign=middle;spacingLeft=4;spacingRight=4;overflow=hidden;points=[[0,0.5],[1,0.5]];portConstraint=eastwest;rotatable=0;whiteSpace=wrap;html=1;rounded=1;fontSize=16;" parent="TFRjILqGKOdQbyt4Zj_U-1" vertex="1">
          <mxGeometry y="30" width="170" height="40" as="geometry" />
        </mxCell>
        <mxCell id="TFRjILqGKOdQbyt4Zj_U-19" value="cst_key" style="text;align=left;verticalAlign=middle;spacingLeft=4;spacingRight=4;overflow=hidden;points=[[0,0.5],[1,0.5]];portConstraint=eastwest;rotatable=0;whiteSpace=wrap;html=1;rounded=1;fontSize=16;" parent="TFRjILqGKOdQbyt4Zj_U-1" vertex="1">
          <mxGeometry y="70" width="170" height="40" as="geometry" />
        </mxCell>
        <mxCell id="BgGD-0N4BlXUwv1lQtAU-6" value="CUSTOMER" style="text;html=1;strokeColor=#82b366;fillColor=#d5e8d4;align=center;verticalAlign=middle;whiteSpace=wrap;overflow=hidden;fontSize=16;fontStyle=1" vertex="1" parent="TFRjILqGKOdQbyt4Zj_U-1">
          <mxGeometry y="110" width="170" height="20" as="geometry" />
        </mxCell>
        <mxCell id="TFRjILqGKOdQbyt4Zj_U-5" value="&lt;font style=&quot;&quot;&gt;&lt;span style=&quot;font-weight: bold; font-size: 30px;&quot;&gt;Integration Model&amp;nbsp;&lt;/span&gt;&lt;font style=&quot;font-size: 13px;&quot;&gt;(How tables are created)&lt;/font&gt;&lt;/font&gt;" style="text;html=1;align=center;verticalAlign=middle;resizable=0;points=[];autosize=1;strokeColor=none;fillColor=none;" parent="1" vertex="1">
          <mxGeometry x="20" y="40" width="420" height="50" as="geometry" />
        </mxCell>
        <mxCell id="TFRjILqGKOdQbyt4Zj_U-6" value="Customer Inforamtion" style="text;html=1;align=center;verticalAlign=middle;whiteSpace=wrap;rounded=0;fontSize=12;" parent="1" vertex="1">
          <mxGeometry x="290" y="230" width="170" height="30" as="geometry" />
        </mxCell>
        <mxCell id="TFRjILqGKOdQbyt4Zj_U-7" value="crm_prd_info" style="swimlane;fontStyle=0;childLayout=stackLayout;horizontal=1;startSize=30;horizontalStack=0;resizeParent=1;resizeParentMax=0;resizeLast=0;collapsible=1;marginBottom=0;whiteSpace=wrap;html=1;rounded=1;fillColor=#dae8fc;strokeColor=#6c8ebf;fontSize=18;" parent="1" vertex="1">
          <mxGeometry x="290" y="440" width="170" height="90" as="geometry" />
        </mxCell>
        <mxCell id="TFRjILqGKOdQbyt4Zj_U-8" value="prd_key" style="text;align=left;verticalAlign=middle;spacingLeft=4;spacingRight=4;overflow=hidden;points=[[0,0.5],[1,0.5]];portConstraint=eastwest;rotatable=0;whiteSpace=wrap;html=1;rounded=1;fontSize=16;" parent="TFRjILqGKOdQbyt4Zj_U-7" vertex="1">
          <mxGeometry y="30" width="170" height="40" as="geometry" />
        </mxCell>
        <mxCell id="BgGD-0N4BlXUwv1lQtAU-2" value="PRODCUTS" style="text;html=1;strokeColor=#b85450;fillColor=#f8cecc;align=center;verticalAlign=middle;whiteSpace=wrap;overflow=hidden;fontSize=16;fontStyle=1" vertex="1" parent="TFRjILqGKOdQbyt4Zj_U-7">
          <mxGeometry y="70" width="170" height="20" as="geometry" />
        </mxCell>
        <mxCell id="TFRjILqGKOdQbyt4Zj_U-9" value="Current &amp;amp; History Product Information" style="text;html=1;align=center;verticalAlign=middle;whiteSpace=wrap;rounded=0;fontSize=12;" parent="1" vertex="1">
          <mxGeometry x="270" y="410" width="210" height="30" as="geometry" />
        </mxCell>
        <mxCell id="TFRjILqGKOdQbyt4Zj_U-10" value="crm_sales_details" style="swimlane;fontStyle=0;childLayout=stackLayout;horizontal=1;startSize=30;horizontalStack=0;resizeParent=1;resizeParentMax=0;resizeLast=0;collapsible=1;marginBottom=0;whiteSpace=wrap;html=1;rounded=1;fillColor=#dae8fc;strokeColor=#6c8ebf;fontSize=18;" parent="1" vertex="1">
          <mxGeometry x="40" y="340" width="170" height="130" as="geometry" />
        </mxCell>
        <mxCell id="TFRjILqGKOdQbyt4Zj_U-11" value="cst_id" style="text;align=left;verticalAlign=middle;spacingLeft=4;spacingRight=4;overflow=hidden;points=[[0,0.5],[1,0.5]];portConstraint=eastwest;rotatable=0;whiteSpace=wrap;html=1;rounded=1;fontSize=16;" parent="TFRjILqGKOdQbyt4Zj_U-10" vertex="1">
          <mxGeometry y="30" width="170" height="40" as="geometry" />
        </mxCell>
        <mxCell id="TFRjILqGKOdQbyt4Zj_U-13" value="prd_key" style="text;align=left;verticalAlign=middle;spacingLeft=4;spacingRight=4;overflow=hidden;points=[[0,0.5],[1,0.5]];portConstraint=eastwest;rotatable=0;whiteSpace=wrap;html=1;rounded=1;fontSize=16;" parent="TFRjILqGKOdQbyt4Zj_U-10" vertex="1">
          <mxGeometry y="70" width="170" height="40" as="geometry" />
        </mxCell>
        <mxCell id="BgGD-0N4BlXUwv1lQtAU-7" value="SALES" style="text;html=1;strokeColor=#9673a6;fillColor=#e1d5e7;align=center;verticalAlign=middle;whiteSpace=wrap;overflow=hidden;fontSize=16;fontStyle=1" vertex="1" parent="TFRjILqGKOdQbyt4Zj_U-10">
          <mxGeometry y="110" width="170" height="20" as="geometry" />
        </mxCell>
        <mxCell id="TFRjILqGKOdQbyt4Zj_U-12" value="Transactional Records about Sales&amp;amp; Orders" style="text;html=1;align=center;verticalAlign=middle;whiteSpace=wrap;rounded=0;fontSize=12;" parent="1" vertex="1">
          <mxGeometry x="40" y="310" width="170" height="30" as="geometry" />
        </mxCell>
        <mxCell id="TFRjILqGKOdQbyt4Zj_U-14" style="edgeStyle=orthogonalEdgeStyle;rounded=0;orthogonalLoop=1;jettySize=auto;html=1;entryX=0;entryY=0.5;entryDx=0;entryDy=0;" parent="1" source="TFRjILqGKOdQbyt4Zj_U-11" target="TFRjILqGKOdQbyt4Zj_U-2" edge="1">
          <mxGeometry relative="1" as="geometry" />
        </mxCell>
        <mxCell id="TFRjILqGKOdQbyt4Zj_U-15" style="edgeStyle=orthogonalEdgeStyle;rounded=0;orthogonalLoop=1;jettySize=auto;html=1;entryX=0;entryY=0.5;entryDx=0;entryDy=0;" parent="1" source="TFRjILqGKOdQbyt4Zj_U-13" target="TFRjILqGKOdQbyt4Zj_U-8" edge="1">
          <mxGeometry relative="1" as="geometry" />
        </mxCell>
        <mxCell id="TFRjILqGKOdQbyt4Zj_U-16" value="erp_cust_az12" style="swimlane;fontStyle=0;childLayout=stackLayout;horizontal=1;startSize=30;horizontalStack=0;resizeParent=1;resizeParentMax=0;resizeLast=0;collapsible=1;marginBottom=0;whiteSpace=wrap;html=1;rounded=1;fillColor=#fff2cc;strokeColor=#d6b656;fontSize=18;" parent="1" vertex="1">
          <mxGeometry x="600" y="220" width="170" height="90" as="geometry" />
        </mxCell>
        <mxCell id="TFRjILqGKOdQbyt4Zj_U-17" value="cid" style="text;align=left;verticalAlign=middle;spacingLeft=4;spacingRight=4;overflow=hidden;points=[[0,0.5],[1,0.5]];portConstraint=eastwest;rotatable=0;whiteSpace=wrap;html=1;rounded=1;fontSize=16;" parent="TFRjILqGKOdQbyt4Zj_U-16" vertex="1">
          <mxGeometry y="30" width="170" height="40" as="geometry" />
        </mxCell>
        <mxCell id="BgGD-0N4BlXUwv1lQtAU-4" value="CUSTOMER" style="text;html=1;strokeColor=#82b366;fillColor=#d5e8d4;align=center;verticalAlign=middle;whiteSpace=wrap;overflow=hidden;fontSize=16;fontStyle=1" vertex="1" parent="TFRjILqGKOdQbyt4Zj_U-16">
          <mxGeometry y="70" width="170" height="20" as="geometry" />
        </mxCell>
        <mxCell id="TFRjILqGKOdQbyt4Zj_U-18" value="Extra Customer Info(Birthdate&lt;span style=&quot;background-color: transparent; color: light-dark(rgb(0, 0, 0), rgb(255, 255, 255));&quot;&gt;)&lt;/span&gt;" style="text;html=1;align=center;verticalAlign=middle;whiteSpace=wrap;rounded=0;fontSize=12;" parent="1" vertex="1">
          <mxGeometry x="580" y="190" width="210" height="30" as="geometry" />
        </mxCell>
        <mxCell id="TFRjILqGKOdQbyt4Zj_U-21" value="erp_loc_a101" style="swimlane;fontStyle=0;childLayout=stackLayout;horizontal=1;startSize=30;horizontalStack=0;resizeParent=1;resizeParentMax=0;resizeLast=0;collapsible=1;marginBottom=0;whiteSpace=wrap;html=1;rounded=1;fillColor=#fff2cc;strokeColor=#d6b656;fontSize=18;" parent="1" vertex="1">
          <mxGeometry x="600" y="350" width="170" height="90" as="geometry" />
        </mxCell>
        <mxCell id="TFRjILqGKOdQbyt4Zj_U-22" value="cid" style="text;align=left;verticalAlign=middle;spacingLeft=4;spacingRight=4;overflow=hidden;points=[[0,0.5],[1,0.5]];portConstraint=eastwest;rotatable=0;whiteSpace=wrap;html=1;rounded=1;fontSize=16;" parent="TFRjILqGKOdQbyt4Zj_U-21" vertex="1">
          <mxGeometry y="30" width="170" height="40" as="geometry" />
        </mxCell>
        <mxCell id="BgGD-0N4BlXUwv1lQtAU-3" value="CUSTOMER" style="text;html=1;strokeColor=#82b366;fillColor=#d5e8d4;align=center;verticalAlign=middle;whiteSpace=wrap;overflow=hidden;fontSize=16;fontStyle=1" vertex="1" parent="TFRjILqGKOdQbyt4Zj_U-21">
          <mxGeometry y="70" width="170" height="20" as="geometry" />
        </mxCell>
        <mxCell id="TFRjILqGKOdQbyt4Zj_U-23" value="Location of Customers(Country)" style="text;html=1;align=center;verticalAlign=middle;whiteSpace=wrap;rounded=0;fontSize=12;" parent="1" vertex="1">
          <mxGeometry x="580" y="320" width="210" height="30" as="geometry" />
        </mxCell>
        <mxCell id="TFRjILqGKOdQbyt4Zj_U-30" style="edgeStyle=orthogonalEdgeStyle;rounded=0;orthogonalLoop=1;jettySize=auto;html=1;entryX=0.967;entryY=0.504;entryDx=0;entryDy=0;entryPerimeter=0;" parent="1" source="TFRjILqGKOdQbyt4Zj_U-17" target="TFRjILqGKOdQbyt4Zj_U-19" edge="1">
          <mxGeometry relative="1" as="geometry" />
        </mxCell>
        <mxCell id="TFRjILqGKOdQbyt4Zj_U-31" style="edgeStyle=orthogonalEdgeStyle;rounded=0;orthogonalLoop=1;jettySize=auto;html=1;entryX=0.967;entryY=0.65;entryDx=0;entryDy=0;entryPerimeter=0;" parent="1" source="TFRjILqGKOdQbyt4Zj_U-22" target="TFRjILqGKOdQbyt4Zj_U-19" edge="1">
          <mxGeometry relative="1" as="geometry" />
        </mxCell>
        <mxCell id="TFRjILqGKOdQbyt4Zj_U-32" value="erp_px_cat_g1v2" style="swimlane;fontStyle=0;childLayout=stackLayout;horizontal=1;startSize=30;horizontalStack=0;resizeParent=1;resizeParentMax=0;resizeLast=0;collapsible=1;marginBottom=0;whiteSpace=wrap;html=1;rounded=1;fillColor=#fff2cc;strokeColor=#d6b656;fontSize=18;" parent="1" vertex="1">
          <mxGeometry x="600" y="490" width="170" height="90" as="geometry" />
        </mxCell>
        <mxCell id="TFRjILqGKOdQbyt4Zj_U-33" value="id" style="text;align=left;verticalAlign=middle;spacingLeft=4;spacingRight=4;overflow=hidden;points=[[0,0.5],[1,0.5]];portConstraint=eastwest;rotatable=0;whiteSpace=wrap;html=1;rounded=1;fontSize=16;" parent="TFRjILqGKOdQbyt4Zj_U-32" vertex="1">
          <mxGeometry y="30" width="170" height="40" as="geometry" />
        </mxCell>
        <mxCell id="BgGD-0N4BlXUwv1lQtAU-1" value="PRODCUTS" style="text;html=1;strokeColor=#b85450;fillColor=#f8cecc;align=center;verticalAlign=middle;whiteSpace=wrap;overflow=hidden;fontSize=16;fontStyle=1" vertex="1" parent="TFRjILqGKOdQbyt4Zj_U-32">
          <mxGeometry y="70" width="170" height="20" as="geometry" />
        </mxCell>
        <mxCell id="TFRjILqGKOdQbyt4Zj_U-34" value="Product Categories" style="text;html=1;align=center;verticalAlign=middle;whiteSpace=wrap;rounded=0;fontSize=12;" parent="1" vertex="1">
          <mxGeometry x="580" y="460" width="210" height="30" as="geometry" />
        </mxCell>
        <mxCell id="TFRjILqGKOdQbyt4Zj_U-35" style="edgeStyle=orthogonalEdgeStyle;rounded=0;orthogonalLoop=1;jettySize=auto;html=1;entryX=1.016;entryY=0.379;entryDx=0;entryDy=0;entryPerimeter=0;" parent="1" source="TFRjILqGKOdQbyt4Zj_U-33" target="TFRjILqGKOdQbyt4Zj_U-8" edge="1">
          <mxGeometry relative="1" as="geometry" />
        </mxCell>
        <mxCell id="TFRjILqGKOdQbyt4Zj_U-37" value="CRM" style="rounded=1;whiteSpace=wrap;html=1;fontSize=18;fontStyle=1;fillColor=#dae8fc;strokeColor=#6c8ebf;" parent="1" vertex="1">
          <mxGeometry x="230" y="160" width="80" height="30" as="geometry" />
        </mxCell>
        <mxCell id="TFRjILqGKOdQbyt4Zj_U-40" value="ERP" style="rounded=1;whiteSpace=wrap;html=1;fontSize=18;fontStyle=1;fillColor=#fff2cc;strokeColor=#d6b656;" parent="1" vertex="1">
          <mxGeometry x="650" y="160" width="80" height="30" as="geometry" />
        </mxCell>
        <mxCell id="TFRjILqGKOdQbyt4Zj_U-42" value="Enterprise Resource Planning" style="text;html=1;align=center;verticalAlign=middle;whiteSpace=wrap;rounded=0;" parent="1" vertex="1">
          <mxGeometry x="575" y="130" width="220" height="30" as="geometry" />
        </mxCell>
        <mxCell id="TFRjILqGKOdQbyt4Zj_U-43" value="Customer Relationship Management" style="text;html=1;align=center;verticalAlign=middle;whiteSpace=wrap;rounded=0;" parent="1" vertex="1">
          <mxGeometry x="170" y="130" width="220" height="30" as="geometry" />
        </mxCell>
        <mxCell id="BgGD-0N4BlXUwv1lQtAU-8" value="" style="rounded=1;whiteSpace=wrap;html=1;fillColor=none;dashed=1;strokeColor=#6c8ebf;" vertex="1" parent="1">
          <mxGeometry x="20" y="175" width="490" height="465" as="geometry" />
        </mxCell>
        <mxCell id="BgGD-0N4BlXUwv1lQtAU-9" value="" style="rounded=1;whiteSpace=wrap;html=1;fillColor=none;dashed=1;strokeColor=#d6b656;" vertex="1" parent="1">
          <mxGeometry x="555" y="175" width="260" height="465" as="geometry" />
        </mxCell>
      </root>
    </mxGraphModel>
  </diagram>
</mxfile>
